<?xml version="1.0" encoding="utf-8"?>
<!-- Generator: Adobe Illustrator 25.0.0, SVG Export Plug-In . SVG Version: 6.00 Build 0)  -->
<svg version="1.1" id="Layer_1" xmlns="http://www.w3.org/2000/svg" xmlns:xlink="http://www.w3.org/1999/xlink" x="0px" y="0px"
	 viewBox="0 0 512 512" style="enable-background:new 0 0 512 512;" xml:space="preserve">
<style type="text/css">
	.st0{fill:none;stroke:#D63447;stroke-width:20;stroke-linecap:round;stroke-linejoin:round;stroke-miterlimit:10;}
	.st1{fill:none;stroke:#515151;stroke-width:20;stroke-linecap:round;stroke-linejoin:round;stroke-miterlimit:10;}
</style>
<path class="st0" d="M475,209.4c-7.6-30.4-21.9-53.3-52.5-53.3H383v46.6c0,36.2-30.7,66.7-65.7,66.7H212.2
	c-28.7,0-52.5,24.6-52.5,53.4v100.1c0,28.5,24.8,45.2,52.5,53.4c33.2,9.7,65.2,11.5,105.1,0c26.5-7.7,52.5-23.1,52.5-53.4v-21h-105
	v-32.4h157.6c30.6,0,41.9-21.3,52.5-53.3C486,283.2,485.5,251.6,475,209.4L475,209.4z"/>
<path class="st1" d="M314.4,428.7c5.7,0,10.3,4.7,10.3,10.4c0,5.8-4.6,10.5-10.3,10.5c-5.6,0-10.3-4.7-10.3-10.5
	C304.2,433.3,308.8,428.7,314.4,428.7z"/>
<path class="st1" d="M194,240.3h105.1c29.2,0,52.5-24.1,52.5-53.4V86.6c0-28.5-24-49.9-52.5-54.7c-35.2-5.8-73.5-5.5-105.1,0.1
	c-44.5,7.9-52.5,24.3-52.5,54.7v21.5h105.2v32H102c-30.6,0-57.3,18.4-65.7,53.3c-9.6,40-10,65,0,106.8c7.5,31.1,25.3,53.3,55.9,53.3
	h36.1v-48C128.3,270.8,158.3,240.3,194,240.3L194,240.3z"/>
<path class="st0" d="M187.4,80.8c-5.7,0-10.3-4.7-10.3-10.4c0.1-5.8,4.6-10.5,10.3-10.5c5.6,0,10.3,4.7,10.3,10.5
	C197.7,76.2,193.1,80.8,187.4,80.8z"/>
<g id="Layer_1_1_">
</g>
</svg>
